<?xml version="1.0" encoding="ISO-8859-1" standalone="no"?>
<!DOCTYPE svg PUBLIC "-//W3C//DTD SVG 1.1//EN" "http://www.w3.org/Graphics/SVG/1.1/DTD/svg11.dtd">
<svg version="1.1" baseProfile="full" id="body" width="8in" height="8in" viewBox="0 0 1 1" preserveAspectRatio="none" xmlns="http://www.w3.org/2000/svg" xmlns:xlink="http://www.w3.org/1999/xlink" xmlns:ev="http://www.w3.org/2001/xml-events">
<title>SVG drawing</title>
<desc>This was produced by version 4.4 of GNU libplot, a free library for exporting 2-D vector graphics.</desc>
<rect id="background" x="0" y="0" width="1" height="1" stroke="none" fill="white"/>
<g id="content" transform="translate(0,1) scale(1,-1) scale(0.00024414) " xml:space="preserve" stroke="black" stroke-linecap="butt" stroke-linejoin="miter" stroke-miterlimit="10.433" stroke-dasharray="none" stroke-dashoffset="0" stroke-opacity="1" fill="none" fill-rule="evenodd" fill-opacity="1" font-style="normal" font-variant="normal" font-weight="normal" font-stretch="normal" font-size-adjust="none" letter-spacing="normal" word-spacing="normal" text-anchor="start">
<text transform="translate(1036.9,3365.9) scale(1,-1) scale(3.6864) " font-family="Helvetica,sans-serif" font-size="20px" stroke="none" fill="black" >Grammar=E_EEE.g Dataset=E_EEE.ds Algorithm=memoized</text>
<rect x="819.2" y="819.2" width="2457.6" height="2457.6" stroke-width="4.8188" />
<text transform="translate(747.46,662.21) scale(1,-1) scale(6.4512) " font-family="Helvetica,sans-serif" font-size="20px" stroke="none" fill="black" >10</text>
<line x1="819.2" y1="3276.8" x2="819.2" y2="3227.6" stroke-width="4.8188" />
<line x1="819.2" y1="819.2" x2="819.2" y2="868.35" stroke-width="4.8188" />
<text transform="translate(1239,662.21) scale(1,-1) scale(6.4512) " font-family="Helvetica,sans-serif" font-size="20px" stroke="none" fill="black" >20</text>
<line x1="1310.7" y1="3276.8" x2="1310.7" y2="3227.6" stroke-width="4.8188" />
<line x1="1310.7" y1="819.2" x2="1310.7" y2="868.35" stroke-width="4.8188" />
<text transform="translate(1730.5,662.21) scale(1,-1) scale(6.4512) " font-family="Helvetica,sans-serif" font-size="20px" stroke="none" fill="black" >30</text>
<line x1="1802.2" y1="3276.8" x2="1802.2" y2="3227.6" stroke-width="4.8188" />
<line x1="1802.2" y1="819.2" x2="1802.2" y2="868.35" stroke-width="4.8188" />
<text transform="translate(2222,662.21) scale(1,-1) scale(6.4512) " font-family="Helvetica,sans-serif" font-size="20px" stroke="none" fill="black" >40</text>
<line x1="2293.8" y1="3276.8" x2="2293.8" y2="3227.6" stroke-width="4.8188" />
<line x1="2293.8" y1="819.2" x2="2293.8" y2="868.35" stroke-width="4.8188" />
<text transform="translate(2713.5,662.21) scale(1,-1) scale(6.4512) " font-family="Helvetica,sans-serif" font-size="20px" stroke="none" fill="black" >50</text>
<line x1="2785.3" y1="3276.8" x2="2785.3" y2="3227.6" stroke-width="4.8188" />
<line x1="2785.3" y1="819.2" x2="2785.3" y2="868.35" stroke-width="4.8188" />
<text transform="translate(3205.1,662.21) scale(1,-1) scale(6.4512) " font-family="Helvetica,sans-serif" font-size="20px" stroke="none" fill="black" >60</text>
<line x1="3276.8" y1="3276.8" x2="3276.8" y2="3227.6" stroke-width="4.8188" />
<line x1="3276.8" y1="819.2" x2="3276.8" y2="868.35" stroke-width="4.8188" />
<line x1="819.2" y1="3276.8" x2="819.2" y2="3257.1" stroke-width="4.8188" />
<line x1="819.2" y1="819.2" x2="819.2" y2="838.86" stroke-width="4.8188" />
<line x1="917.5" y1="3276.8" x2="917.5" y2="3257.1" stroke-width="4.8188" />
<line x1="917.5" y1="819.2" x2="917.5" y2="838.86" stroke-width="4.8188" />
<line x1="1015.8" y1="3276.8" x2="1015.8" y2="3257.1" stroke-width="4.8188" />
<line x1="1015.8" y1="819.2" x2="1015.8" y2="838.86" stroke-width="4.8188" />
<line x1="1114.1" y1="3276.8" x2="1114.1" y2="3257.1" stroke-width="4.8188" />
<line x1="1114.1" y1="819.2" x2="1114.1" y2="838.86" stroke-width="4.8188" />
<line x1="1212.4" y1="3276.8" x2="1212.4" y2="3257.1" stroke-width="4.8188" />
<line x1="1212.4" y1="819.2" x2="1212.4" y2="838.86" stroke-width="4.8188" />
<line x1="1310.7" y1="3276.8" x2="1310.7" y2="3257.1" stroke-width="4.8188" />
<line x1="1310.7" y1="819.2" x2="1310.7" y2="838.86" stroke-width="4.8188" />
<line x1="1409" y1="3276.8" x2="1409" y2="3257.1" stroke-width="4.8188" />
<line x1="1409" y1="819.2" x2="1409" y2="838.86" stroke-width="4.8188" />
<line x1="1507.3" y1="3276.8" x2="1507.3" y2="3257.1" stroke-width="4.8188" />
<line x1="1507.3" y1="819.2" x2="1507.3" y2="838.86" stroke-width="4.8188" />
<line x1="1605.6" y1="3276.8" x2="1605.6" y2="3257.1" stroke-width="4.8188" />
<line x1="1605.6" y1="819.2" x2="1605.6" y2="838.86" stroke-width="4.8188" />
<line x1="1703.9" y1="3276.8" x2="1703.9" y2="3257.1" stroke-width="4.8188" />
<line x1="1703.9" y1="819.2" x2="1703.9" y2="838.86" stroke-width="4.8188" />
<line x1="1802.2" y1="3276.8" x2="1802.2" y2="3257.1" stroke-width="4.8188" />
<line x1="1802.2" y1="819.2" x2="1802.2" y2="838.86" stroke-width="4.8188" />
<line x1="1900.5" y1="3276.8" x2="1900.5" y2="3257.1" stroke-width="4.8188" />
<line x1="1900.5" y1="819.2" x2="1900.5" y2="838.86" stroke-width="4.8188" />
<line x1="1998.8" y1="3276.8" x2="1998.8" y2="3257.1" stroke-width="4.8188" />
<line x1="1998.8" y1="819.2" x2="1998.8" y2="838.86" stroke-width="4.8188" />
<line x1="2097.2" y1="3276.8" x2="2097.2" y2="3257.1" stroke-width="4.8188" />
<line x1="2097.2" y1="819.2" x2="2097.2" y2="838.86" stroke-width="4.8188" />
<line x1="2195.5" y1="3276.8" x2="2195.5" y2="3257.1" stroke-width="4.8188" />
<line x1="2195.5" y1="819.2" x2="2195.5" y2="838.86" stroke-width="4.8188" />
<line x1="2293.8" y1="3276.8" x2="2293.8" y2="3257.1" stroke-width="4.8188" />
<line x1="2293.8" y1="819.2" x2="2293.8" y2="838.86" stroke-width="4.8188" />
<line x1="2392.1" y1="3276.8" x2="2392.1" y2="3257.1" stroke-width="4.8188" />
<line x1="2392.1" y1="819.2" x2="2392.1" y2="838.86" stroke-width="4.8188" />
<line x1="2490.4" y1="3276.8" x2="2490.4" y2="3257.1" stroke-width="4.8188" />
<line x1="2490.4" y1="819.2" x2="2490.4" y2="838.86" stroke-width="4.8188" />
<line x1="2588.7" y1="3276.8" x2="2588.7" y2="3257.1" stroke-width="4.8188" />
<line x1="2588.7" y1="819.2" x2="2588.7" y2="838.86" stroke-width="4.8188" />
<line x1="2687" y1="3276.8" x2="2687" y2="3257.1" stroke-width="4.8188" />
<line x1="2687" y1="819.2" x2="2687" y2="838.86" stroke-width="4.8188" />
<line x1="2785.3" y1="3276.8" x2="2785.3" y2="3257.1" stroke-width="4.8188" />
<line x1="2785.3" y1="819.2" x2="2785.3" y2="838.86" stroke-width="4.8188" />
<line x1="2883.6" y1="3276.8" x2="2883.6" y2="3257.1" stroke-width="4.8188" />
<line x1="2883.6" y1="819.2" x2="2883.6" y2="838.86" stroke-width="4.8188" />
<line x1="2981.9" y1="3276.8" x2="2981.9" y2="3257.1" stroke-width="4.8188" />
<line x1="2981.9" y1="819.2" x2="2981.9" y2="838.86" stroke-width="4.8188" />
<line x1="3080.2" y1="3276.8" x2="3080.2" y2="3257.1" stroke-width="4.8188" />
<line x1="3080.2" y1="819.2" x2="3080.2" y2="838.86" stroke-width="4.8188" />
<line x1="3178.5" y1="3276.8" x2="3178.5" y2="3257.1" stroke-width="4.8188" />
<line x1="3178.5" y1="819.2" x2="3178.5" y2="838.86" stroke-width="4.8188" />
<line x1="3276.8" y1="3276.8" x2="3276.8" y2="3257.1" stroke-width="4.8188" />
<line x1="3276.8" y1="819.2" x2="3276.8" y2="838.86" stroke-width="4.8188" />
<text transform="translate(710.6,773.65) scale(1,-1) scale(6.4512) " font-family="Helvetica,sans-serif" font-size="20px" stroke="none" fill="black" >0</text>
<line x1="3276.8" y1="819.2" x2="3227.6" y2="819.2" stroke-width="4.8188" />
<line x1="819.2" y1="819.2" x2="868.35" y2="819.2" stroke-width="4.8188" />
<text transform="translate(710.6,1388.1) scale(1,-1) scale(6.4512) " font-family="Helvetica,sans-serif" font-size="20px" stroke="none" fill="black" >5</text>
<line x1="3276.8" y1="1433.6" x2="3227.6" y2="1433.6" stroke-width="4.8188" />
<line x1="819.2" y1="1433.6" x2="868.35" y2="1433.6" stroke-width="4.8188" />
<text transform="translate(638.86,2002.5) scale(1,-1) scale(6.4512) " font-family="Helvetica,sans-serif" font-size="20px" stroke="none" fill="black" >10</text>
<line x1="3276.8" y1="2048" x2="3227.6" y2="2048" stroke-width="4.8188" />
<line x1="819.2" y1="2048" x2="868.35" y2="2048" stroke-width="4.8188" />
<text transform="translate(638.86,2616.9) scale(1,-1) scale(6.4512) " font-family="Helvetica,sans-serif" font-size="20px" stroke="none" fill="black" >15</text>
<line x1="3276.8" y1="2662.4" x2="3227.6" y2="2662.4" stroke-width="4.8188" />
<line x1="819.2" y1="2662.4" x2="868.35" y2="2662.4" stroke-width="4.8188" />
<text transform="translate(638.86,3231.3) scale(1,-1) scale(6.4512) " font-family="Helvetica,sans-serif" font-size="20px" stroke="none" fill="black" >20</text>
<line x1="3276.8" y1="3276.8" x2="3227.6" y2="3276.8" stroke-width="4.8188" />
<line x1="819.2" y1="3276.8" x2="868.35" y2="3276.8" stroke-width="4.8188" />
<line x1="3276.8" y1="819.2" x2="3257.1" y2="819.2" stroke-width="4.8188" />
<line x1="819.2" y1="819.2" x2="838.86" y2="819.2" stroke-width="4.8188" />
<line x1="3276.8" y1="942.08" x2="3257.1" y2="942.08" stroke-width="4.8188" />
<line x1="819.2" y1="942.08" x2="838.86" y2="942.08" stroke-width="4.8188" />
<line x1="3276.8" y1="1065" x2="3257.1" y2="1065" stroke-width="4.8188" />
<line x1="819.2" y1="1065" x2="838.86" y2="1065" stroke-width="4.8188" />
<line x1="3276.8" y1="1187.8" x2="3257.1" y2="1187.8" stroke-width="4.8188" />
<line x1="819.2" y1="1187.8" x2="838.86" y2="1187.8" stroke-width="4.8188" />
<line x1="3276.8" y1="1310.7" x2="3257.1" y2="1310.7" stroke-width="4.8188" />
<line x1="819.2" y1="1310.7" x2="838.86" y2="1310.7" stroke-width="4.8188" />
<line x1="3276.8" y1="1433.6" x2="3257.1" y2="1433.6" stroke-width="4.8188" />
<line x1="819.2" y1="1433.6" x2="838.86" y2="1433.6" stroke-width="4.8188" />
<line x1="3276.8" y1="1556.5" x2="3257.1" y2="1556.5" stroke-width="4.8188" />
<line x1="819.2" y1="1556.5" x2="838.86" y2="1556.5" stroke-width="4.8188" />
<line x1="3276.8" y1="1679.4" x2="3257.1" y2="1679.4" stroke-width="4.8188" />
<line x1="819.2" y1="1679.4" x2="838.86" y2="1679.4" stroke-width="4.8188" />
<line x1="3276.8" y1="1802.2" x2="3257.1" y2="1802.2" stroke-width="4.8188" />
<line x1="819.2" y1="1802.2" x2="838.86" y2="1802.2" stroke-width="4.8188" />
<line x1="3276.8" y1="1925.1" x2="3257.1" y2="1925.1" stroke-width="4.8188" />
<line x1="819.2" y1="1925.1" x2="838.86" y2="1925.1" stroke-width="4.8188" />
<line x1="3276.8" y1="2048" x2="3257.1" y2="2048" stroke-width="4.8188" />
<line x1="819.2" y1="2048" x2="838.86" y2="2048" stroke-width="4.8188" />
<line x1="3276.8" y1="2170.9" x2="3257.1" y2="2170.9" stroke-width="4.8188" />
<line x1="819.2" y1="2170.9" x2="838.86" y2="2170.9" stroke-width="4.8188" />
<line x1="3276.8" y1="2293.8" x2="3257.1" y2="2293.8" stroke-width="4.8188" />
<line x1="819.2" y1="2293.8" x2="838.86" y2="2293.8" stroke-width="4.8188" />
<line x1="3276.8" y1="2416.6" x2="3257.1" y2="2416.6" stroke-width="4.8188" />
<line x1="819.2" y1="2416.6" x2="838.86" y2="2416.6" stroke-width="4.8188" />
<line x1="3276.8" y1="2539.5" x2="3257.1" y2="2539.5" stroke-width="4.8188" />
<line x1="819.2" y1="2539.5" x2="838.86" y2="2539.5" stroke-width="4.8188" />
<line x1="3276.8" y1="2662.4" x2="3257.1" y2="2662.4" stroke-width="4.8188" />
<line x1="819.2" y1="2662.4" x2="838.86" y2="2662.4" stroke-width="4.8188" />
<line x1="3276.8" y1="2785.3" x2="3257.1" y2="2785.3" stroke-width="4.8188" />
<line x1="819.2" y1="2785.3" x2="838.86" y2="2785.3" stroke-width="4.8188" />
<line x1="3276.8" y1="2908.2" x2="3257.1" y2="2908.2" stroke-width="4.8188" />
<line x1="819.2" y1="2908.2" x2="838.86" y2="2908.2" stroke-width="4.8188" />
<line x1="3276.8" y1="3031" x2="3257.1" y2="3031" stroke-width="4.8188" />
<line x1="819.2" y1="3031" x2="838.86" y2="3031" stroke-width="4.8188" />
<line x1="3276.8" y1="3153.9" x2="3257.1" y2="3153.9" stroke-width="4.8188" />
<line x1="819.2" y1="3153.9" x2="838.86" y2="3153.9" stroke-width="4.8188" />
<line x1="3276.8" y1="3276.8" x2="3257.1" y2="3276.8" stroke-width="4.8188" />
<line x1="819.2" y1="3276.8" x2="838.86" y2="3276.8" stroke-width="4.8188" />
<text transform="translate(927.56,501.24) scale(1,-1) scale(6.4512) " font-family="Helvetica,sans-serif" font-size="20px" stroke="none" fill="black" >Relative input size (60 ~ 60 characters)</text>
<text transform="matrix(0 6.4512 6.4512 0 552.83 1854.5) " font-family="Helvetica,sans-serif" font-size="20px" stroke="none" fill="black" >Time/s</text>
<polyline points="819.2,819.2 1310.7,827.8 1802.2,872.04 2293.8,1049 2785.3,1563.9 3276.8,2887.3 " stroke-width="4.8188" />
</g>
</svg>
